<svg width="120" height="120" viewBox="0 0 120 120" xmlns="http://www.w3.org/2000/svg" role="img" aria-labelledby="title desc">
  <title id="title">Deloitte Cyber Simulation badge</title>
  <desc id="desc">Geometric mark inspired by Deloitte's green dot paired with layered shields.</desc>
  <defs>
    <linearGradient id="shield" x1="0" y1="0" x2="1" y2="1">
      <stop offset="0" stop-color="#1b1f2a"/>
      <stop offset="1" stop-color="#0e121b"/>
    </linearGradient>
    <linearGradient id="glow" x1="0" y1="0" x2="1" y2="1">
      <stop offset="0" stop-color="#8fffa2"/>
      <stop offset="1" stop-color="#4ddf6f"/>
    </linearGradient>
  </defs>
  <rect width="120" height="120" rx="28" fill="#050608"/>
  <circle cx="60" cy="60" r="46" fill="url(#shield)" stroke="#1f2433" stroke-width="2"/>
  <circle cx="60" cy="60" r="32" fill="#0b0f18" stroke="#242c3c" stroke-width="2"/>
  <path d="M60 28 L82 42 L82 72 C82 82 72 92 60 96 C48 92 38 82 38 72 V42 Z" fill="none" stroke="#2d364b" stroke-width="3"/>
  <path d="M60 34 L76 44 V70 C76 78 69 86 60 90 C51 86 44 78 44 70 V44 Z" fill="none" stroke="#1e9b44" stroke-width="3"/>
  <circle cx="86" cy="34" r="10" fill="url(#glow)"/>
  <circle cx="60" cy="60" r="8" fill="#8fffa2"/>
</svg>